<svg width="14" height="14" viewBox="0 0 14 14" fill="none" xmlns="http://www.w3.org/2000/svg">
<path d="M5.84091 3.68182C6.25512 3.68182 6.59091 3.34603 6.59091 2.93182C6.59091 2.5176 6.25512 2.18182 5.84091 2.18182V2.93182V3.68182ZM1.17603 3.35785L1.70635 3.88818L1.70637 3.88817L1.17603 3.35785ZM1.17603 11.9603L1.70638 11.43L1.70637 11.43L1.17603 11.9603ZM10.9545 7.29545C10.9545 6.88124 10.6188 6.54545 10.2045 6.54545C9.79033 6.54545 9.45455 6.88124 9.45455 7.29545H10.2045H10.9545ZM4.58331 7.4924C4.29041 7.78529 4.29041 8.26016 4.58331 8.55306C4.8762 8.84595 5.35107 8.84595 5.64397 8.55306L5.11364 8.02273L4.58331 7.4924ZM12.9167 1.28033C13.2096 0.987437 13.2096 0.512563 12.9167 0.21967C12.6238 -0.0732233 12.1489 -0.0732233 11.856 0.21967L12.3864 0.75L12.9167 1.28033ZM12.3864 1.5C12.8006 1.5 13.1364 1.16421 13.1364 0.75C13.1364 0.335786 12.8006 0 12.3864 0V0.75V1.5ZM8.75 0C8.33579 0 8 0.335786 8 0.75C8 1.16421 8.33579 1.5 8.75 1.5V0.75V0ZM13.1364 0.75C13.1364 0.335786 12.8006 0 12.3864 0C11.9721 0 11.6364 0.335786 11.6364 0.75H12.3864H13.1364ZM11.6364 4.38636C11.6364 4.80058 11.9721 5.13636 12.3864 5.13636C12.8006 5.13636 13.1364 4.80058 13.1364 4.38636H12.3864H11.6364ZM5.84091 2.93182V2.18182H2.20455V2.93182V3.68182H5.84091V2.93182ZM2.20455 2.93182V2.18182C1.61987 2.18182 1.05913 2.41408 0.645692 2.82752L1.17603 3.35785L1.70637 3.88817C1.83849 3.75605 2.01769 3.68182 2.20455 3.68182V2.93182ZM1.17603 3.35785L0.645706 2.82751C0.232259 3.24095 0 3.80169 0 4.38636H0.75H1.5C1.5 4.19951 1.57423 4.0203 1.70635 3.88818L1.17603 3.35785ZM0.75 4.38636H0V10.9318H0.75H1.5V4.38636H0.75ZM0.75 10.9318H0C0 11.5165 0.232269 12.0772 0.645685 12.4906L1.17603 11.9603L1.70637 11.43C1.57422 11.2978 1.5 11.1186 1.5 10.9318H0.75ZM1.17603 11.9603L0.645678 12.4906C1.05913 12.9041 1.61988 13.1364 2.20455 13.1364V12.3864V11.6364C2.01768 11.6364 1.83849 11.5621 1.70638 11.43L1.17603 11.9603ZM2.20455 12.3864V13.1364H8.75V12.3864V11.6364H2.20455V12.3864ZM8.75 12.3864V13.1364C9.33466 13.1364 9.89539 12.9041 10.3088 12.4907L9.77851 11.9603L9.24818 11.43C9.11603 11.5621 8.93683 11.6364 8.75 11.6364V12.3864ZM9.77851 11.9603L10.3088 12.4907C10.7223 12.0772 10.9545 11.5165 10.9545 10.9318H10.2045H9.45455C9.45455 11.1186 9.38033 11.2978 9.24818 11.43L9.77851 11.9603ZM10.2045 10.9318H10.9545V7.29545H10.2045H9.45455V10.9318H10.2045ZM5.11364 8.02273L5.64397 8.55306L12.9167 1.28033L12.3864 0.75L11.856 0.21967L4.58331 7.4924L5.11364 8.02273ZM12.3864 0.75V0H8.75V0.75V1.5H12.3864V0.75ZM12.3864 0.75H11.6364V4.38636H12.3864H13.1364V0.75H12.3864Z" fill="#757575"/>
</svg>
